<svg xmlns="http://www.w3.org/2000/svg" width="20" height="20" viewBox="0 0 20 20" fill="none">
<path fill-rule="evenodd" clip-rule="evenodd" d="M9.99994 0C4.48597 0 0 4.48597 0 9.99994C0 11.7279 0.449998 13.4199 1.30399 14.9239L0.100999 17.9649C-0.356998 19.1739 0.826995 20.3579 2.03599 19.8989L5.07597 18.6949C6.57596 19.5499 8.27295 19.9999 9.99994 19.9999C15.5139 19.9999 19.9999 15.5139 19.9999 9.99994C19.9999 4.48597 15.5139 0 9.99994 0ZM5.29297 9.29295C5.47997 9.10495 5.73497 8.99995 5.99997 8.99995C6.26497 8.99995 6.51996 9.10495 6.70696 9.29295C6.89496 9.47995 6.99996 9.73495 6.99996 9.99994C6.99996 10.2649 6.89496 10.5199 6.70696 10.7069C6.51996 10.8949 6.26497 10.9999 5.99997 10.9999C5.73497 10.9999 5.47997 10.8949 5.29297 10.7069C5.10497 10.5199 4.99997 10.2649 4.99997 9.99994C4.99997 9.73495 5.10497 9.47995 5.29297 9.29295ZM9.29295 9.29295C9.47995 9.10495 9.73495 8.99995 9.99994 8.99995C10.2649 8.99995 10.5199 9.10495 10.7069 9.29295C10.8949 9.47995 10.9999 9.73495 10.9999 9.99994C10.9999 10.2649 10.8949 10.5199 10.7069 10.7069C10.5189 10.8939 10.2649 10.9999 9.99994 10.9999C9.73495 10.9999 9.47995 10.8949 9.29295 10.7069C9.10595 10.5189 8.99995 10.2649 8.99995 9.99994C8.99995 9.73495 9.10495 9.47995 9.29295 9.29295ZM13.9999 8.99995C13.7349 8.99995 13.4799 9.10495 13.2929 9.29295C13.1049 9.47995 12.9999 9.73495 12.9999 9.99994C12.9999 10.2649 13.1049 10.5199 13.2929 10.7069C13.4809 10.8939 13.7349 10.9999 13.9999 10.9999C14.2649 10.9999 14.5199 10.8949 14.7069 10.7069C14.8939 10.5189 14.9999 10.2649 14.9999 9.99994C14.9999 9.73495 14.8949 9.47995 14.7069 9.29295C14.5199 9.10495 14.2649 8.99995 13.9999 8.99995Z" fill="#212121"/>
</svg>