<svg xmlns="http://www.w3.org/2000/svg" width="20" height="20" viewBox="0 0 20 20" fill="none">
  <path d="M17.2656 2.42188H17.068V2.92969C17.068 3.34409 16.9033 3.74152 16.6103 4.03454C16.3173 4.32757 15.9199 4.49219 15.5055 4.49219C15.0911 4.49219 14.6936 4.32757 14.4006 4.03454C14.1076 3.74152 13.943 3.34409 13.943 2.92969V2.42188H6.05703V2.92969C6.05703 3.34409 5.89241 3.74152 5.59939 4.03454C5.30636 4.32757 4.90893 4.49219 4.49453 4.49219C4.08013 4.49219 3.6827 4.32757 3.38968 4.03454C3.09665 3.74152 2.93203 3.34409 2.93203 2.92969V2.42188H2.73438C2.00917 2.42188 1.31367 2.70996 0.80088 3.22275C0.288085 3.73555 0 4.43105 0 5.15625L0 17.2656C0 17.9908 0.288085 18.6863 0.80088 19.1991C1.31367 19.7119 2.00917 20 2.73438 20H17.2656C17.9908 20 18.6863 19.7119 19.1991 19.1991C19.7119 18.6863 20 17.9908 20 17.2656V5.15625C20 4.43105 19.7119 3.73555 19.1991 3.22275C18.6863 2.70996 17.9908 2.42188 17.2656 2.42188ZM18.4375 16.2891C18.4375 16.5712 18.3819 16.8506 18.274 17.1112C18.166 17.3719 18.0077 17.6087 17.8082 17.8082C17.6087 18.0077 17.3719 18.166 17.1112 18.274C16.8506 18.3819 16.5712 18.4375 16.2891 18.4375H3.71094C3.4288 18.4375 3.14943 18.3819 2.88877 18.274C2.62811 18.166 2.39126 18.0077 2.19176 17.8082C1.99226 17.6087 1.83401 17.3719 1.72604 17.1112C1.61807 16.8506 1.5625 16.5712 1.5625 16.2891V8.86719C1.5625 8.29739 1.78885 7.75092 2.19176 7.34801C2.59467 6.9451 3.14114 6.71875 3.71094 6.71875H16.2891C16.5712 6.71875 16.8506 6.77432 17.1112 6.88229C17.3719 6.99026 17.6087 7.14851 17.8082 7.34801C18.0077 7.54751 18.166 7.78436 18.274 8.04502C18.3819 8.30568 18.4375 8.58505 18.4375 8.86719V16.2891Z" fill="#212121"/>
  <path d="M14.5288 0.976562V2.92969C14.5288 3.46903 14.966 3.90625 15.5054 3.90625C16.0447 3.90625 16.4819 3.46903 16.4819 2.92969V0.976562C16.4819 0.437222 16.0447 0 15.5054 0C14.966 0 14.5288 0.437222 14.5288 0.976562Z" fill="#212121"/>
  <path d="M3.51807 0.976562V2.92969C3.51807 3.46903 3.95529 3.90625 4.49463 3.90625C5.03397 3.90625 5.47119 3.46903 5.47119 2.92969V0.976562C5.47119 0.437222 5.03397 0 4.49463 0C3.95529 0 3.51807 0.437222 3.51807 0.976562Z" fill="#212121"/>
  <path d="M5.80078 8.37891H4.04297C3.6115 8.37891 3.26172 8.72868 3.26172 9.16016V10.918C3.26172 11.3494 3.6115 11.6992 4.04297 11.6992H5.80078C6.23225 11.6992 6.58203 11.3494 6.58203 10.918V9.16016C6.58203 8.72868 6.23225 8.37891 5.80078 8.37891Z" fill="#212121"/>
  <path d="M10.8789 8.37891H9.12109C8.68962 8.37891 8.33984 8.72868 8.33984 9.16016V10.918C8.33984 11.3494 8.68962 11.6992 9.12109 11.6992H10.8789C11.3104 11.6992 11.6602 11.3494 11.6602 10.918V9.16016C11.6602 8.72868 11.3104 8.37891 10.8789 8.37891Z" fill="#212121"/>
  <path d="M15.957 8.37891H14.1992C13.7677 8.37891 13.418 8.72868 13.418 9.16016V10.918C13.418 11.3494 13.7677 11.6992 14.1992 11.6992H15.957C16.3885 11.6992 16.7383 11.3494 16.7383 10.918V9.16016C16.7383 8.72868 16.3885 8.37891 15.957 8.37891Z" fill="#212121"/>
  <path d="M5.80078 13.457H4.04297C3.6115 13.457 3.26172 13.8068 3.26172 14.2383V15.9961C3.26172 16.4276 3.6115 16.7773 4.04297 16.7773H5.80078C6.23225 16.7773 6.58203 16.4276 6.58203 15.9961V14.2383C6.58203 13.8068 6.23225 13.457 5.80078 13.457Z" fill="#212121"/>
  <path d="M10.8789 13.457H9.12109C8.68962 13.457 8.33984 13.8068 8.33984 14.2383V15.9961C8.33984 16.4276 8.68962 16.7773 9.12109 16.7773H10.8789C11.3104 16.7773 11.6602 16.4276 11.6602 15.9961V14.2383C11.6602 13.8068 11.3104 13.457 10.8789 13.457Z" fill="#212121"/>
  <path d="M15.5391 13H13.7812C13.3498 13 13 13.3498 13 13.7812V15.5391C13 15.9705 13.3498 16.3203 13.7812 16.3203H15.5391C15.9705 16.3203 16.3203 15.9705 16.3203 15.5391V13.7812C16.3203 13.3498 15.9705 13 15.5391 13Z" fill="#212121"/>
</svg>