<svg width="1000" height="1000" viewBox="0 0 1000 1000" fill="none" xmlns="http://www.w3.org/2000/svg">
<circle cx="500" cy="500" r="500" fill="#3644FF"/>
<path d="M419.715 424.346C438.091 467.337 493.959 488.609 536.102 467.835C592.44 444.92 605.287 362.21 559.627 323.287C489.973 258.361 380.115 337.215 419.715 424.346Z" fill="white"/>
<path d="M595.988 517.809C578.335 506.591 556.837 500.554 535.031 500.343C532.44 500.271 458.686 500.117 458.747 500.698C398.331 503.49 349.295 554.527 349.31 616.196C350.335 626.408 347.645 657.434 350.915 666.992C357.33 694.441 382.105 715.116 411.691 715.116H588.503C623.207 715.263 651.224 686.284 650.885 652.734V616.195C650.718 574.966 629.154 538.143 595.988 517.809Z" fill="white"/>
<path d="M283.545 666.993H317.443C320.69 666.993 323.224 663.917 322.976 660.68C321.944 647.215 322.893 621.975 322.579 613.523C323.838 554.108 361.401 502.816 415.288 482.556C419.068 481.135 420.146 475.894 417.381 472.951C415.281 470.716 413.276 468.388 411.337 466.138C410.537 465.209 409.422 464.603 408.203 464.472C404.82 464.11 401.614 463.983 398.152 463.983H333.095C272.853 463.983 223.837 512.998 223.837 573.241V607.285C223.837 640.258 250.572 666.993 283.545 666.993Z" fill="white"/>
<path d="M365.705 450.615C375.052 450.615 383.904 449.134 392.263 446.273C394.997 445.337 396.153 442.189 394.988 439.544C388.258 424.272 384.563 406.911 385.489 389.482C386.37 359.761 399.41 331.259 420.461 311.048C422.526 309.066 422.672 305.744 420.553 303.82C369.683 257.636 280.393 295.847 281.935 367.028C281.934 413.009 319.542 450.615 365.705 450.615Z" fill="white"/>
<path d="M667.113 463.981H602.583C602.233 463.981 601.876 463.94 601.532 463.876C592.725 462.232 587.772 467.305 582.599 472.858C579.86 475.798 581.064 481.094 584.829 482.498C605.059 490.041 623.08 502.049 637.703 517.451C661.765 542.405 676.915 576.269 677.629 613.521C677.272 623.556 678.6 656.123 676.501 666.439C676.425 666.816 676.558 666.99 676.943 666.99C681.81 666.991 716.663 666.991 716.663 666.991C716.663 666.991 716.663 666.991 716.663 666.991C749.636 666.991 776.371 640.256 776.371 607.283V573.239C776.371 512.996 727.356 463.981 667.113 463.981Z" fill="white"/>
<path d="M607.582 353.656C612.399 366.036 614.734 379.747 614.889 393.58C614.889 409.871 611.454 425.446 605.226 439.536C604.056 442.183 605.209 445.338 607.948 446.275C616.304 449.134 625.152 450.614 634.495 450.614C745.202 447.013 745.164 286.902 634.493 283.43C613.624 283.43 594.543 291.186 579.845 303.835C577.634 305.738 577.743 309.127 579.846 311.15C592.027 322.871 601.623 337.391 607.582 353.656Z" fill="white"/>
</svg>
