<svg xmlns="http://www.w3.org/2000/svg" width="26" height="20" viewBox="0 0 26 20" fill="none">
  <path d="M9.09149 6.79594C9.94285 8.78771 12.5312 9.77324 14.4837 8.81079C17.0938 7.74912 17.6891 3.91718 15.5736 2.11389C12.3466 -0.894138 7.25684 2.75916 9.09149 6.79594Z" fill="#3644FF"/>
  <path d="M17.2418 10.8588C16.4239 10.339 15.4279 10.0593 14.4176 10.0496C14.2976 10.0462 10.8806 10.0391 10.8834 10.066C8.08432 10.1954 5.81251 12.5599 5.81319 15.417C5.86068 15.8901 5.73606 17.3276 5.88756 17.7704C6.18474 19.0421 7.33259 20 8.70331 20H16.895C18.5028 20.0068 19.8009 18.6642 19.7851 17.1098V15.417C19.7774 13.5068 18.7784 11.8008 17.2418 10.8588Z" fill="#3644FF"/>
  <path d="M2.76626 17.7704C3.71537 17.7704 4.56548 16.8566 4.5752 15.9075C4.57786 15.6478 4.57964 15.4258 4.57471 15.2932C4.63047 12.6619 6.22307 10.3745 8.54404 9.35799C8.85147 9.22334 8.94977 8.7694 8.73042 8.51536C8.66381 8.43822 8.57348 8.38981 8.47195 8.38086C8.34032 8.36927 8.21243 8.36499 8.07599 8.36499H5.06193C2.27088 8.36499 0 10.6359 0 13.4269V15.0042C0 16.5318 1.23864 17.7704 2.76626 17.7704Z" fill="#3644FF"/>
  <path d="M6.57276 7.74567C7.38472 7.74567 7.7073 6.83715 7.56276 6.03815C7.49623 5.67036 7.46922 5.29221 7.48933 4.91337C7.55899 2.56391 7.51085 -0.53749 5.2957 0.248599C3.83162 0.768158 2.65328 2.09978 2.69171 3.87305C2.69166 6.00336 4.43402 7.74567 6.57276 7.74567Z" fill="#3644FF"/>
  <path d="M20.5369 8.36488H17.6013C17.5491 8.36488 17.4838 8.35579 17.4319 8.35014C16.8374 8.2853 17.0822 9.33834 17.6055 9.62808C18.1888 9.95108 18.7173 10.3608 19.1743 10.8422C20.2891 11.9983 20.991 13.5672 21.0241 15.2931C21.0119 15.6362 21.0422 16.5477 21.0198 17.1939C21.0065 17.5789 21.1607 17.7703 21.5459 17.7703C22.0938 17.7703 22.8324 17.7703 22.8325 17.7703C22.8325 17.7703 22.8325 17.7703 22.8325 17.7703C24.3602 17.7703 25.5988 16.5317 25.5988 15.0041V13.4268C25.5988 10.6358 23.3279 8.36488 20.5369 8.36488Z" fill="#3644FF"/>
  <path d="M17.7788 3.25353C18.002 3.8271 18.1102 4.46233 18.1174 5.10323C18.1174 5.42158 18.0891 5.73403 18.0347 6.03792C17.8917 6.83663 18.2143 7.74559 19.0257 7.74559C24.1548 7.57877 24.153 0.160828 19.0256 0C18.8946 0 18.7651 0.00659901 18.6374 0.0194669C17.2311 0.161196 17.2926 1.92634 17.7788 3.25353Z" fill="#3644FF"/>
</svg>