<svg xmlns="http://www.w3.org/2000/svg" width="14" height="14" viewBox="0 0 14 14" fill="none">
<path fill-rule="evenodd" clip-rule="evenodd" d="M9.05335 10.2964L12.5052 13.744C12.847 14.0854 13.402 14.0853 13.7438 13.7438C14.0855 13.4023 14.0854 12.8478 13.7436 12.5063L10.294 9.06109C10.988 8.11807 11.3982 6.9535 11.3982 5.69391C11.3982 2.55132 8.84452 0 5.69908 0C2.55364 0 0 2.55132 0 5.69391C0 8.83649 2.55364 11.3878 5.69908 11.3878C6.95257 11.3878 8.112 10.9827 9.05335 10.2964ZM5.69908 1.75006C7.87774 1.75006 9.64662 3.51723 9.64662 5.69391C9.64662 7.87059 7.87774 9.63786 5.69908 9.63786C3.52043 9.63786 1.75165 7.87059 1.75165 5.69391C1.75165 3.51723 3.52043 1.75006 5.69908 1.75006Z" fill="#6C6C6C"/>
</svg>