<svg width="20" height="19" viewBox="0 0 20 19" fill="none" xmlns="http://www.w3.org/2000/svg">
<path d="M4.00003 15.2308H2.75378V16.1385C2.75378 17.4154 3.79232 18.4615 5.07688 18.4615H16.7999C18.077 18.4615 19.1153 17.4154 19.1153 16.1385V2.31539C19.1153 1.03849 18.077 0 16.7999 0H5.07688C3.79232 0 2.75378 1.03849 2.75378 2.31539V3.22308H4.00003C5.26918 3.22308 6.30772 4.26157 6.30772 5.53077C6.30772 6.80772 5.26918 7.83846 4.00003 7.83846H2.75378V10.6154H4.00003C5.26918 10.6154 6.30772 11.6539 6.30772 12.9231C6.30772 14.2 5.26918 15.2308 4.00003 15.2308ZM13.4462 15.4077H10.8692C10.4386 15.4077 10.1 15.0616 10.1 14.6385C10.1 14.2154 10.4386 13.8693 10.8692 13.8693H13.4462C13.8693 13.8693 14.2154 14.2154 14.2154 14.6385C14.2154 15.0616 13.8693 15.4077 13.4462 15.4077ZM8.4462 3.84615C8.4462 3.41539 8.79232 3.07692 9.21544 3.07692H15.1C15.5231 3.07692 15.8692 3.41539 15.8692 3.84615V7.6154C15.8692 8.03847 15.5231 8.38463 15.1 8.38463H9.21544C8.79232 8.38463 8.4462 8.03847 8.4462 7.6154V3.84615ZM9.21544 10.1H15.1C15.5231 10.1 15.8692 10.4385 15.8692 10.8692C15.8692 11.2923 15.5231 11.6385 15.1 11.6385H9.21544C8.79232 11.6385 8.4462 11.2923 8.4462 10.8692C8.4462 10.4385 8.79232 10.1 9.21544 10.1Z" fill="black"/>
<path d="M1.65387 4.76172C1.22306 4.76172 0.884644 5.10788 0.884644 5.53095C0.884644 5.96172 1.22306 6.30018 1.65387 6.30018C1.83016 6.30018 4.11502 6.30018 4.00007 6.30018C4.42318 6.30018 4.7693 5.96172 4.7693 5.53095C4.7693 5.10788 4.42318 4.76172 4.00007 4.76172C3.37986 4.76172 1.57489 4.76172 1.65387 4.76172Z" fill="black"/>
<path d="M1.65387 13.6918C1.83016 13.6918 4.11502 13.6918 4.00007 13.6918C4.42318 13.6918 4.7693 13.3533 4.7693 12.9226C4.7693 12.4994 4.42318 12.1533 4.00007 12.1533C3.37986 12.1533 1.57489 12.1533 1.65387 12.1533C1.22306 12.1533 0.884644 12.4994 0.884644 12.9226C0.884644 13.3533 1.22306 13.6918 1.65387 13.6918Z" fill="black"/>
</svg>
