<svg xmlns="http://www.w3.org/2000/svg" width="16" height="20" viewBox="0 0 16 20" fill="none">
<path d="M13.5285 6.76126V5.62804C13.5285 2.55152 11.0345 0.0574951 7.95792 0.0574951C4.88137 0.0574951 2.38738 2.55152 2.38738 5.62804V6.76126C0.939061 7.39335 0.00208896 8.82257 0 10.4028V15.1776C0.0026112 17.374 1.78251 19.1539 3.97894 19.1565H11.9369C14.1333 19.1539 15.9132 17.374 15.9158 15.1776V10.4028C15.9138 8.82257 14.9768 7.39335 13.5285 6.76126ZM8.7537 13.586C8.7537 14.0255 8.39742 14.3818 7.95792 14.3818C7.51842 14.3818 7.16214 14.0255 7.16214 13.586V11.9944C7.16214 11.5549 7.51842 11.1986 7.95792 11.1986C8.39742 11.1986 8.7537 11.5549 8.7537 11.9944V13.586ZM11.9369 6.42385H3.97894V5.62807C3.97894 3.43056 5.76038 1.64909 7.95792 1.64909C10.1555 1.64909 11.9369 3.43053 11.9369 5.62807V6.42385Z" fill="#3644FF" fill-opacity="0.5"/>
</svg>