<svg xmlns="http://www.w3.org/2000/svg" width="20" height="17" viewBox="0 0 20 17" fill="none">
  <path d="M18.125 14.9375H3.375C2.21875 14.9375 1.25 14 1.25 12.8125V0.625C1.25 0.28125 0.96875 0 0.625 0C0.28125 0 0 0.28125 0 0.625V12.8438C0 14.6875 1.5 16.2188 3.375 16.2188H18.125C18.4688 16.2188 18.75 15.9375 18.75 15.5938C18.75 15.25 18.4688 14.9375 18.125 14.9375Z" fill="#212121"/>
  <path d="M18.8125 3.5625C18.5625 3.3125 18.25 3.1875 17.9375 3.1875C17.625 3.1875 17.2812 3.3125 17.0625 3.5625L12.4688 8.15625L10.25 5.9375C9.75 5.4375 8.96875 5.4375 8.46875 5.9375L4.46875 9.9375C3.96875 10.4375 3.96875 11.2188 4.46875 11.7188C4.71875 11.9688 5.03125 12.0938 5.34375 12.0938C5.6875 12.0938 6 11.9688 6.21875 11.7188L9.34375 8.59375L11.5625 10.8125C12.0313 11.2812 12.8438 11.2812 13.3438 10.8125L18.8125 5.34375C19.3125 4.84375 19.3125 4.0625 18.8125 3.5625Z" fill="#212121"/>
</svg>