<svg xmlns="http://www.w3.org/2000/svg" width="12" height="12" viewBox="0 0 12 12" fill="none">
  <path fill-rule="evenodd" clip-rule="evenodd" d="M7.76001 8.82551L10.7188 11.7806C11.0117 12.0732 11.4875 12.0731 11.7804 11.7804C12.0733 11.4877 12.0732 11.0124 11.7802 10.7197L8.82344 7.76665C9.41826 6.95835 9.76985 5.96015 9.76985 4.88049C9.76985 2.18685 7.58102 0 4.88493 0C2.18883 0 0 2.18685 0 4.88049C0 7.57414 2.18883 9.76099 4.88493 9.76099C5.95934 9.76099 6.95314 9.41376 7.76001 8.82551ZM4.88493 1.50005C6.75234 1.50005 8.26853 3.01477 8.26853 4.88049C8.26853 6.74622 6.75234 8.26103 4.88493 8.26103C3.01751 8.26103 1.50141 6.74622 1.50141 4.88049C1.50141 3.01477 3.01751 1.50005 4.88493 1.50005Z" fill="#212121"/>
</svg>