<svg xmlns="http://www.w3.org/2000/svg" width="30" height="30" viewBox="0 0 30 30" fill="none">
  <rect width="30" height="30" rx="7" fill="#3644FF"/>
  <path d="M14.9998 16.727C16.0201 16.727 16.8472 15.8999 16.8472 14.8796C16.8472 13.8593 16.0201 13.0322 14.9998 13.0322C13.9795 13.0322 13.1523 13.8593 13.1523 14.8796C13.1523 15.8999 13.9795 16.727 14.9998 16.727Z" fill="white"/>
  <path d="M20.8159 14.3679C19.3959 12.6518 17.2463 11 15 11C12.7533 11 10.6032 12.653 9.18411 14.3679C8.93863 14.6644 8.93863 15.0948 9.18411 15.3913C9.54089 15.8225 10.2889 16.6547 11.2879 17.3819C13.8038 19.2135 16.1907 19.2175 18.7122 17.3819C19.7112 16.6547 20.4592 15.8225 20.8159 15.3913C21.0607 15.0954 21.062 14.6653 20.8159 14.3679ZM15 12.2932C16.4262 12.2932 17.5864 13.4534 17.5864 14.8796C17.5864 16.3058 16.4262 17.466 15 17.466C13.5738 17.466 12.4136 16.3058 12.4136 14.8796C12.4136 13.4534 13.5738 12.2932 15 12.2932Z" fill="white"/>
</svg>