<svg xmlns="http://www.w3.org/2000/svg" width="17" height="9" viewBox="0 0 17 9" fill="none">
<path d="M16.9666 0.879625C16.867 0.455637 16.5948 0.169906 16.1299 0.0500839C15.6219 -0.0820282 15.2003 0.0623735 14.8417 0.397262C13.4505 1.68766 12.0626 2.98113 10.6747 4.2746C9.97745 4.9198 9.27355 5.56192 8.50325 6.27164L2.14824 0.391118C1.61699 -0.100462 0.859969 -0.128114 0.368567 0.305091C-0.122834 0.738296 -0.129474 1.47259 0.388489 1.95496C2.78573 4.1855 5.19293 6.41297 7.60345 8.63122C8.12806 9.11359 8.86516 9.12588 9.3798 8.64966C11.8036 6.42219 14.2174 4.18857 16.6247 1.94881C16.9401 1.65386 17.0662 1.29132 16.9666 0.879625Z" fill="#212121"/>
</svg>