<svg xmlns="http://www.w3.org/2000/svg" width="17" height="20" viewBox="0 0 17 20" fill="none">
<path d="M8.21709 9.63403C9.54063 9.63403 10.6867 9.15933 11.6231 8.22275C12.5596 7.28633 13.0343 6.14055 13.0343 4.81686C13.0343 3.49363 12.5596 2.3477 11.623 1.41097C10.6864 0.474701 9.54048 3.8147e-06 8.21709 3.8147e-06C6.89339 3.8147e-06 5.74761 0.474701 4.81118 1.41113C3.87475 2.34755 3.3999 3.49348 3.3999 4.81686C3.3999 6.14055 3.87475 7.28648 4.81134 8.2229C5.74792 9.15918 6.89385 9.63403 8.21709 9.63403Z" fill="#3644FF"/>
<path d="M16.6456 15.3789C16.6186 14.9892 16.564 14.5641 16.4836 14.1152C16.4024 13.6629 16.2979 13.2354 16.1727 12.8446C16.0435 12.4407 15.8677 12.0418 15.6504 11.6596C15.4249 11.2629 15.16 10.9174 14.8628 10.6332C14.552 10.3358 14.1714 10.0967 13.7313 9.92226C13.2928 9.74877 12.8068 9.66088 12.2869 9.66088C12.0828 9.66088 11.8853 9.74465 11.504 9.99291C11.2693 10.146 10.9948 10.323 10.6884 10.5187C10.4264 10.6857 10.0715 10.8421 9.63315 10.9837C9.20544 11.1221 8.77118 11.1922 8.34256 11.1922C7.91394 11.1922 7.47983 11.1221 7.05167 10.9837C6.61375 10.8422 6.25883 10.6858 5.99714 10.5189C5.69365 10.3249 5.41899 10.1479 5.1808 9.99276C4.79994 9.7445 4.60234 9.66073 4.39818 9.66073C3.87816 9.66073 3.39232 9.74877 2.95394 9.92241C2.51418 10.0965 2.13348 10.3356 1.82235 10.6333C1.52526 10.9177 1.26022 11.263 1.035 11.6596C0.817868 12.0418 0.642088 12.4406 0.512694 12.8448C0.387724 13.2355 0.283202 13.6629 0.202026 14.1152C0.121612 14.5635 0.0669859 14.9888 0.0399779 15.3794C0.0134277 15.7621 0 16.1592 0 16.5604C0 17.6044 0.331878 18.4496 0.986325 19.0729C1.63268 19.688 2.48794 20 3.52797 20H13.1581C14.1981 20 15.053 19.6881 15.6996 19.0729C16.3542 18.45 16.686 17.6047 16.686 16.5602C16.6859 16.1573 16.6723 15.7598 16.6456 15.3789Z" fill="#3644FF"/>
</svg>