<svg xmlns="http://www.w3.org/2000/svg" width="40" height="40" viewBox="0 0 40 40" fill="none">
<circle cx="19.9091" cy="19.9091" r="19.9091" fill="#3644FF"/>
<path d="M19.8968 19.8302C20.9972 19.8302 21.95 19.4356 22.7285 18.657C23.507 17.8785 23.9016 16.926 23.9016 15.8255C23.9016 14.7254 23.507 13.7728 22.7283 12.994C21.9497 12.2157 20.997 11.821 19.8968 11.821C18.7964 11.821 17.8439 12.2157 17.0654 12.9941C16.2869 13.7726 15.8921 14.7253 15.8921 15.8255C15.8921 16.926 16.2869 17.8786 17.0655 18.6571C17.8441 19.4355 18.7968 19.8302 19.8968 19.8302Z" fill="white"/>
<path d="M26.9037 24.6063C26.8813 24.2823 26.8359 23.9289 26.769 23.5557C26.7015 23.1797 26.6146 22.8242 26.5106 22.4994C26.4032 22.1636 26.257 21.832 26.0764 21.5142C25.8889 21.1844 25.6687 20.8972 25.4216 20.6609C25.1632 20.4136 24.8468 20.2149 24.481 20.0699C24.1164 19.9256 23.7124 19.8526 23.2802 19.8526C23.1104 19.8526 22.9463 19.9222 22.6293 20.1286C22.4342 20.2558 22.206 20.403 21.9513 20.5657C21.7334 20.7045 21.4384 20.8345 21.0739 20.9523C20.7184 21.0673 20.3573 21.1257 20.001 21.1257C19.6447 21.1257 19.2838 21.0673 18.9278 20.9523C18.5638 20.8347 18.2687 20.7046 18.0511 20.5659C17.7988 20.4046 17.5705 20.2575 17.3725 20.1285C17.0559 19.9221 16.8916 19.8524 16.7218 19.8524C16.2895 19.8524 15.8856 19.9256 15.5212 20.07C15.1556 20.2147 14.8391 20.4135 14.5804 20.661C14.3335 20.8975 14.1131 21.1845 13.9259 21.5142C13.7454 21.832 13.5992 22.1635 13.4917 22.4995C13.3878 22.8244 13.3009 23.1797 13.2334 23.5557C13.1665 23.9284 13.1211 24.2819 13.0987 24.6066C13.0766 24.9248 13.0654 25.255 13.0654 25.5885C13.0654 26.4564 13.3413 27.159 13.8854 27.6772C14.4228 28.1886 15.1338 28.448 15.9984 28.448H24.0044C24.869 28.448 25.5798 28.1887 26.1172 27.6772C26.6614 27.1594 26.9373 26.4567 26.9373 25.5884C26.9372 25.2533 26.9259 24.9229 26.9037 24.6063Z" fill="white"/>
</svg>